<?xml version="1.0" encoding="UTF-8"?>
<level>
  <owner>stolbitsa</owner>
  <repo>new</repo>
  <version>v1.0.0</version>
  <next number="1" owner="stolbitsa" repo="tonic"/>
  <readme>
    <en>5bd88677920c30e76f2c5c2cc76867304e7ce929e90b6ad6b51e60ac49bd7fe9</en>
    <ru>066d209907cca2e2a7d606b308857aae80c8b2fc684b8eb75128d7bc402ab710</ru>
  </readme>
  <license>b1b99f5538d1fd3702219bff50c665196dfa42f6ee755c37fe41a6178d6bc6e5</license>
  <exercise number="1">
    <scale>major</scale>
    <bpm>80</bpm>
    <lowestNote>1</lowestNote>
    <tonalities>1</tonalities>
    <notes>
      <note number="1" values="1" ticks="0" durationTicks="95" ppq="96" velocity="0.843"/>
      <note number="2" values="1" ticks="96" durationTicks="95" ppq="96" velocity="0.913"/>
      <note number="3" values="1" ticks="192" durationTicks="95" ppq="96" velocity="0.913"/>
      <note number="4" values="1" ticks="288" durationTicks="95" ppq="96" velocity="0.913"/>
      <note number="5" values="1" ticks="384" durationTicks="95" ppq="96" velocity="0.913"/>
      <note number="6" values="1" ticks="480" durationTicks="95" ppq="96" velocity="0.913"/>
      <note number="7" values="1" ticks="576" durationTicks="95" ppq="96" velocity="0.913"/>
      <note number="8" values="1" ticks="672" durationTicks="95" ppq="96" velocity="0.913"/>
      <note number="9" values="1" ticks="768" durationTicks="95" ppq="96" velocity="0.913"/>
      <note number="10" values="1" ticks="864" durationTicks="95" ppq="96" velocity="0.913"/>
      <note number="11" values="1" ticks="960" durationTicks="95" ppq="96" velocity="0.913"/>
      <note number="12" values="1" ticks="1056" durationTicks="95" ppq="96" velocity="0.913"/>
    </notes>
  </exercise>
  <exercise number="2">
    <scale>major</scale>
    <bpm>80</bpm>
    <lowestNote>1</lowestNote>
    <tonalities>1</tonalities>
    <notes>
      <note number="1" values="1" ticks="0" durationTicks="95" ppq="96" velocity="0.843"/>
      <note number="2" values="1" ticks="96" durationTicks="95" ppq="96" velocity="0.913"/>
      <note number="3" values="1" ticks="192" durationTicks="95" ppq="96" velocity="0.913"/>
      <note number="4" values="1" ticks="288" durationTicks="95" ppq="96" velocity="0.913"/>
      <note number="5" values="1" ticks="384" durationTicks="95" ppq="96" velocity="0.913"/>
      <note number="6" values="1" ticks="480" durationTicks="95" ppq="96" velocity="0.913"/>
      <note number="7" values="1" ticks="576" durationTicks="95" ppq="96" velocity="0.913"/>
      <note number="8" values="1" ticks="672" durationTicks="95" ppq="96" velocity="0.913"/>
      <note number="9" values="1" ticks="768" durationTicks="95" ppq="96" velocity="0.913"/>
      <note number="10" values="1" ticks="864" durationTicks="95" ppq="96" velocity="0.913"/>
      <note number="11" values="1" ticks="960" durationTicks="95" ppq="96" velocity="0.913"/>
      <note number="12" values="1" ticks="1056" durationTicks="95" ppq="96" velocity="0.913"/>
    </notes>
  </exercise>
  <exercise number="3">
    <scale>major</scale>
    <bpm>80</bpm>
    <lowestNote>1</lowestNote>
    <tonalities>1</tonalities>
    <notes>
      <note number="1" values="1" ticks="0" durationTicks="95" ppq="96" velocity="0.843"/>
      <note number="2" values="1" ticks="96" durationTicks="95" ppq="96" velocity="0.913"/>
      <note number="3" values="1" ticks="192" durationTicks="95" ppq="96" velocity="0.913"/>
      <note number="4" values="1" ticks="288" durationTicks="95" ppq="96" velocity="0.913"/>
      <note number="5" values="1" ticks="384" durationTicks="95" ppq="96" velocity="0.913"/>
      <note number="6" values="1" ticks="480" durationTicks="95" ppq="96" velocity="0.913"/>
      <note number="7" values="1" ticks="576" durationTicks="95" ppq="96" velocity="0.913"/>
      <note number="8" values="1" ticks="672" durationTicks="95" ppq="96" velocity="0.913"/>
      <note number="9" values="1" ticks="768" durationTicks="95" ppq="96" velocity="0.913"/>
      <note number="10" values="1" ticks="864" durationTicks="95" ppq="96" velocity="0.913"/>
      <note number="11" values="1" ticks="960" durationTicks="95" ppq="96" velocity="0.913"/>
      <note number="12" values="1" ticks="1056" durationTicks="95" ppq="96" velocity="0.913"/>
    </notes>
  </exercise>
  <exercise number="4">
    <scale>major</scale>
    <bpm>80</bpm>
    <lowestNote>1</lowestNote>
    <tonalities>1</tonalities>
    <notes>
      <note number="1" values="1" ticks="0" durationTicks="95" ppq="96" velocity="0.843"/>
      <note number="2" values="1" ticks="96" durationTicks="95" ppq="96" velocity="0.913"/>
      <note number="3" values="1" ticks="192" durationTicks="95" ppq="96" velocity="0.913"/>
      <note number="4" values="1" ticks="288" durationTicks="95" ppq="96" velocity="0.913"/>
      <note number="5" values="1" ticks="384" durationTicks="95" ppq="96" velocity="0.913"/>
      <note number="6" values="1" ticks="480" durationTicks="95" ppq="96" velocity="0.913"/>
      <note number="7" values="1" ticks="576" durationTicks="95" ppq="96" velocity="0.913"/>
      <note number="8" values="1" ticks="672" durationTicks="95" ppq="96" velocity="0.913"/>
      <note number="9" values="1" ticks="768" durationTicks="95" ppq="96" velocity="0.913"/>
      <note number="10" values="1" ticks="864" durationTicks="95" ppq="96" velocity="0.913"/>
      <note number="11" values="1" ticks="960" durationTicks="95" ppq="96" velocity="0.913"/>
      <note number="12" values="1" ticks="1056" durationTicks="95" ppq="96" velocity="0.913"/>
    </notes>
  </exercise>
</level>
